<svg width="11" height="13" viewBox="0 0 11 13" fill="none" xmlns="http://www.w3.org/2000/svg">
<rect width="9.58064" height="11.1671" transform="matrix(-1 0 0 1 9.9032 0.339417)" fill="#454545"/>
<path d="M11 0H5.5H2.75L1.43846 1.64435L0 3.25V6.5V13H11V0Z" fill="#7B6CA6"/>
<rect width="9.12903" height="7.19582" transform="matrix(-1 0 0 1 10.0645 4.3107)" fill="#CDCDCD"/>
<line y1="-0.5" x2="7.70968" y2="-0.5" transform="matrix(-1 0 0 1 9.35486 5.63446)" stroke="black"/>
<line y1="-0.5" x2="7.70968" y2="-0.5" transform="matrix(-1 0 0 1 9.35486 8.04437)" stroke="black"/>
<line y1="-0.5" x2="7.70968" y2="-0.5" transform="matrix(-1 0 0 1 9.35486 10.1828)" stroke="black"/>
<line y1="-0.5" x2="7.70968" y2="-0.5" transform="matrix(-1 0 0 1 9.35486 5.63446)" stroke="black"/>
<line y1="-0.5" x2="7.70968" y2="-0.5" transform="matrix(-1 0 0 1 9.35486 8.04437)" stroke="black"/>
<line y1="-0.5" x2="7.70968" y2="-0.5" transform="matrix(-1 0 0 1 9.35486 10.1828)" stroke="black"/>
<rect width="9.12903" height="0.746737" transform="matrix(-1 0 0 1 10.0645 12.2533)" fill="#D57A26"/>
<line y1="-0.5" x2="0.305484" y2="-0.5" transform="matrix(1.2878e-06 -1 -1 -1.48368e-09 9.9032 13)" stroke="black"/>
<line y1="-0.5" x2="0.305484" y2="-0.5" transform="matrix(1.2878e-06 -1 -1 -1.48368e-09 9.64514 13)" stroke="black"/>
<line y1="-0.5" x2="0.169713" y2="-0.5" transform="matrix(1.2878e-06 -1 -1 -1.48368e-09 9.77417 13)" stroke="black"/>
<line y1="-0.5" x2="0.305484" y2="-0.5" transform="matrix(1.2878e-06 -1 -1 -1.48368e-09 9.38708 13)" stroke="black"/>
<line y1="-0.5" x2="0.169713" y2="-0.5" transform="matrix(1.2878e-06 -1 -1 -1.48368e-09 9.51611 13)" stroke="black"/>
<line y1="-0.5" x2="0.305484" y2="-0.5" transform="matrix(1.2878e-06 -1 -1 -1.48368e-09 9.12903 13)" stroke="black"/>
<line y1="-0.5" x2="0.169713" y2="-0.5" transform="matrix(1.2878e-06 -1 -1 -1.48368e-09 9.25806 13)" stroke="black"/>
<line y1="-0.5" x2="0.305484" y2="-0.5" transform="matrix(1.2878e-06 -1 -1 -1.48368e-09 8.87097 13)" stroke="black"/>
<line y1="-0.5" x2="0.169713" y2="-0.5" transform="matrix(1.2878e-06 -1 -1 -1.48368e-09 9 13)" stroke="black"/>
<line y1="-0.5" x2="0.305484" y2="-0.5" transform="matrix(1.2878e-06 -1 -1 -1.48368e-09 8.61292 13)" stroke="black"/>
<line y1="-0.5" x2="0.169713" y2="-0.5" transform="matrix(1.2878e-06 -1 -1 -1.48368e-09 8.74194 13)" stroke="black"/>
<line y1="-0.5" x2="0.305484" y2="-0.5" transform="matrix(1.2878e-06 -1 -1 -1.48368e-09 8.35486 13)" stroke="black"/>
<line y1="-0.5" x2="0.169713" y2="-0.5" transform="matrix(1.2878e-06 -1 -1 -1.48368e-09 8.48389 13)" stroke="black"/>
<line y1="-0.5" x2="0.305484" y2="-0.5" transform="matrix(1.2878e-06 -1 -1 -1.48368e-09 8.0968 13)" stroke="black"/>
<line y1="-0.5" x2="0.169713" y2="-0.5" transform="matrix(1.2878e-06 -1 -1 -1.48368e-09 8.22583 13)" stroke="black"/>
<line y1="-0.5" x2="0.305484" y2="-0.5" transform="matrix(1.2878e-06 -1 -1 -1.48368e-09 7.83875 13)" stroke="black"/>
<line y1="-0.5" x2="0.169713" y2="-0.5" transform="matrix(1.2878e-06 -1 -1 -1.48368e-09 7.96777 13)" stroke="black"/>
<line y1="-0.5" x2="0.305484" y2="-0.5" transform="matrix(1.2878e-06 -1 -1 -1.48368e-09 7.58063 13)" stroke="black"/>
<line y1="-0.5" x2="0.169713" y2="-0.5" transform="matrix(1.2878e-06 -1 -1 -1.48368e-09 7.70966 13)" stroke="black"/>
<line y1="-0.5" x2="0.305484" y2="-0.5" transform="matrix(1.2878e-06 -1 -1 -1.48368e-09 7.32257 13)" stroke="black"/>
<line y1="-0.5" x2="0.169713" y2="-0.5" transform="matrix(1.2878e-06 -1 -1 -1.48368e-09 7.4516 13)" stroke="black"/>
<line y1="-0.5" x2="0.305484" y2="-0.5" transform="matrix(1.2878e-06 -1 -1 -1.48368e-09 7.06451 13)" stroke="black"/>
<line y1="-0.5" x2="0.169713" y2="-0.5" transform="matrix(1.2878e-06 -1 -1 -1.48368e-09 7.19354 13)" stroke="black"/>
<line y1="-0.5" x2="0.305484" y2="-0.5" transform="matrix(1.2878e-06 -1 -1 -1.48368e-09 6.80646 13)" stroke="black"/>
<line y1="-0.5" x2="0.169713" y2="-0.5" transform="matrix(1.2878e-06 -1 -1 -1.48368e-09 6.93549 13)" stroke="black"/>
<line y1="-0.5" x2="0.305484" y2="-0.5" transform="matrix(1.2878e-06 -1 -1 -1.48368e-09 6.5484 13)" stroke="black"/>
<line y1="-0.5" x2="0.169713" y2="-0.5" transform="matrix(1.2878e-06 -1 -1 -1.48368e-09 6.67743 13)" stroke="black"/>
<line y1="-0.5" x2="0.305484" y2="-0.5" transform="matrix(1.2878e-06 -1 -1 -1.48368e-09 6.29034 13)" stroke="black"/>
<line y1="-0.5" x2="0.169713" y2="-0.5" transform="matrix(1.2878e-06 -1 -1 -1.48368e-09 6.41937 13)" stroke="black"/>
<line y1="-0.5" x2="0.305484" y2="-0.5" transform="matrix(1.2878e-06 -1 -1 -1.48368e-09 6.03229 13)" stroke="black"/>
<line y1="-0.5" x2="0.169713" y2="-0.5" transform="matrix(1.2878e-06 -1 -1 -1.48368e-09 6.16132 13)" stroke="black"/>
<line y1="-0.5" x2="0.305484" y2="-0.5" transform="matrix(1.2878e-06 -1 -1 -1.48368e-09 5.77417 13)" stroke="black"/>
<line y1="-0.5" x2="0.169713" y2="-0.5" transform="matrix(1.2878e-06 -1 -1 -1.48368e-09 5.9032 13)" stroke="black"/>
<line y1="-0.5" x2="0.305484" y2="-0.5" transform="matrix(1.2878e-06 -1 -1 -1.48368e-09 5.51611 13)" stroke="black"/>
<line y1="-0.5" x2="0.169713" y2="-0.5" transform="matrix(1.2878e-06 -1 -1 -1.48368e-09 5.64514 13)" stroke="black"/>
<line y1="-0.5" x2="0.305484" y2="-0.5" transform="matrix(1.2878e-06 -1 -1 -1.48368e-09 5.25806 13)" stroke="black"/>
<line y1="-0.5" x2="0.169713" y2="-0.5" transform="matrix(1.2878e-06 -1 -1 -1.48368e-09 5.38708 13)" stroke="black"/>
<line y1="-0.5" x2="0.305484" y2="-0.5" transform="matrix(1.2878e-06 -1 -1 -1.48368e-09 5 13)" stroke="black"/>
<line y1="-0.5" x2="0.169713" y2="-0.5" transform="matrix(1.2878e-06 -1 -1 -1.48368e-09 5.12903 13)" stroke="black"/>
<line y1="-0.5" x2="0.305484" y2="-0.5" transform="matrix(1.2878e-06 -1 -1 -1.48368e-09 4.74194 13)" stroke="black"/>
<line y1="-0.5" x2="0.169713" y2="-0.5" transform="matrix(1.2878e-06 -1 -1 -1.48368e-09 4.87097 13)" stroke="black"/>
<line y1="-0.5" x2="0.305484" y2="-0.5" transform="matrix(1.2878e-06 -1 -1 -1.48368e-09 4.48389 13)" stroke="black"/>
<line y1="-0.5" x2="0.169713" y2="-0.5" transform="matrix(1.2878e-06 -1 -1 -1.48368e-09 4.61292 13)" stroke="black"/>
<line y1="-0.5" x2="0.305484" y2="-0.5" transform="matrix(1.2878e-06 -1 -1 -1.48368e-09 4.22583 13)" stroke="black"/>
<line y1="-0.5" x2="0.169713" y2="-0.5" transform="matrix(1.2878e-06 -1 -1 -1.48368e-09 4.35486 13)" stroke="black"/>
<line y1="-0.5" x2="0.305484" y2="-0.5" transform="matrix(1.2878e-06 -1 -1 -1.48368e-09 3.96777 13)" stroke="black"/>
<line y1="-0.5" x2="0.169713" y2="-0.5" transform="matrix(1.2878e-06 -1 -1 -1.48368e-09 4.0968 13)" stroke="black"/>
<line y1="-0.5" x2="0.305484" y2="-0.5" transform="matrix(1.2878e-06 -1 -1 -1.48368e-09 3.70966 13)" stroke="black"/>
<line y1="-0.5" x2="0.169713" y2="-0.5" transform="matrix(1.2878e-06 -1 -1 -1.48368e-09 3.83868 13)" stroke="black"/>
<line y1="-0.5" x2="0.305484" y2="-0.5" transform="matrix(1.2878e-06 -1 -1 -1.48368e-09 3.4516 13)" stroke="black"/>
<line y1="-0.5" x2="0.169713" y2="-0.5" transform="matrix(1.2878e-06 -1 -1 -1.48368e-09 3.58063 13)" stroke="black"/>
<line y1="-0.5" x2="0.305484" y2="-0.5" transform="matrix(1.2878e-06 -1 -1 -1.48368e-09 3.19354 13)" stroke="black"/>
<line y1="-0.5" x2="0.169713" y2="-0.5" transform="matrix(1.2878e-06 -1 -1 -1.48368e-09 3.32257 13)" stroke="black"/>
<line y1="-0.5" x2="0.305484" y2="-0.5" transform="matrix(1.2878e-06 -1 -1 -1.48368e-09 2.93549 13)" stroke="black"/>
<line y1="-0.5" x2="0.169713" y2="-0.5" transform="matrix(1.2878e-06 -1 -1 -1.48368e-09 3.06451 13)" stroke="black"/>
<line y1="-0.5" x2="0.305484" y2="-0.5" transform="matrix(1.2878e-06 -1 -1 -1.48368e-09 2.67743 13)" stroke="black"/>
<line y1="-0.5" x2="0.169713" y2="-0.5" transform="matrix(1.2878e-06 -1 -1 -1.48368e-09 2.80646 13)" stroke="black"/>
<line y1="-0.5" x2="0.305484" y2="-0.5" transform="matrix(1.2878e-06 -1 -1 -1.48368e-09 2.41937 13)" stroke="black"/>
<line y1="-0.5" x2="0.169713" y2="-0.5" transform="matrix(1.2878e-06 -1 -1 -1.48368e-09 2.5484 13)" stroke="black"/>
<line y1="-0.5" x2="0.305484" y2="-0.5" transform="matrix(1.2878e-06 -1 -1 -1.48368e-09 2.16132 13)" stroke="black"/>
<line y1="-0.5" x2="0.169713" y2="-0.5" transform="matrix(1.2878e-06 -1 -1 -1.48368e-09 2.29034 13)" stroke="black"/>
<line y1="-0.5" x2="0.305484" y2="-0.5" transform="matrix(1.2878e-06 -1 -1 -1.48368e-09 1.9032 13)" stroke="black"/>
<line y1="-0.5" x2="0.169713" y2="-0.5" transform="matrix(1.2878e-06 -1 -1 -1.48368e-09 2.03223 13)" stroke="black"/>
<line y1="-0.5" x2="0.305484" y2="-0.5" transform="matrix(1.2878e-06 -1 -1 -1.48368e-09 1.64514 13)" stroke="black"/>
<line y1="-0.5" x2="0.169713" y2="-0.5" transform="matrix(1.2878e-06 -1 -1 -1.48368e-09 1.77417 13)" stroke="black"/>
<line y1="-0.5" x2="0.305484" y2="-0.5" transform="matrix(1.2878e-06 -1 -1 -1.48368e-09 1.38708 13)" stroke="black"/>
<line y1="-0.5" x2="0.169713" y2="-0.5" transform="matrix(1.2878e-06 -1 -1 -1.48368e-09 1.51611 13)" stroke="black"/>
<line y1="-0.5" x2="0.305484" y2="-0.5" transform="matrix(1.2878e-06 -1 -1 -1.48368e-09 1.0968 13)" stroke="black"/>
<line y1="-0.5" x2="0.169713" y2="-0.5" transform="matrix(1.2878e-06 -1 -1 -1.48368e-09 1.22583 13)" stroke="black"/>
</svg>
